<?xml version="1.0" encoding="utf-8"?>
<!-- Generator: Adobe Illustrator 16.0.0, SVG Export Plug-In . SVG Version: 6.00 Build 0)  -->
<!DOCTYPE svg PUBLIC "-//W3C//DTD SVG 1.1//EN" "http://www.w3.org/Graphics/SVG/1.1/DTD/svg11.dtd">
<svg version="1.1" id="Layer_1" xmlns="http://www.w3.org/2000/svg" xmlns:xlink="http://www.w3.org/1999/xlink" x="0px" y="0px"
	 width="378.451px" height="92.237px" viewBox="-0.411 -0.237 378.451 92.237"
	 enable-background="new -0.411 -0.237 378.451 92.237" xml:space="preserve">
<linearGradient id="SVGID_1_" gradientUnits="userSpaceOnUse" x1="-554.1934" y1="-104.4233" x2="-554.1934" y2="-175.2544" gradientTransform="matrix(1 0 0 -1 579.04 -104.6602)">
	<stop  offset="0" style="stop-color:#FFFFFF"/>
	<stop  offset="1" style="stop-color:#F9F9F9"/>
</linearGradient>
<path fill="url(#SVGID_1_)" d="M41.465,70.594H-0.001V55.587h33.075V42.358H8.387c-2.257,0-4.223-0.725-5.887-2.18
	c-1.671-1.449-2.501-3.252-2.501-5.405V7.183c0-2.042,0.83-3.791,2.501-5.242c1.664-1.453,3.63-2.178,5.887-2.178h41.307v15.005
	H16.779v12.424h24.686c2.258,0,4.193,0.727,5.809,2.179c1.615,1.45,2.42,3.253,2.42,5.403v28.237c0,2.151-0.805,3.952-2.42,5.403
	C45.658,69.868,43.723,70.594,41.465,70.594z"/>
<path fill="#47CDFB" d="M75.959,55.587v15.007H62.406V55.587H75.959z"/>
<linearGradient id="SVGID_2_" gradientUnits="userSpaceOnUse" x1="-453.4341" y1="-104.9033" x2="-453.4341" y2="-175.2544" gradientTransform="matrix(1 0 0 -1 579.04 -104.6602)">
	<stop  offset="0" style="stop-color:#FFFFFF"/>
	<stop  offset="1" style="stop-color:#F9F9F9"/>
</linearGradient>
<path fill="url(#SVGID_2_)" d="M144.243,70.594l-5.486-16.617h-26.139l-5.648,16.617H89.867l23.072-70.351h25.335l23.071,70.351
	H144.243z M125.686,15.09l-8.066,23.718h15.975L125.686,15.09z"/>
<path fill="#66D6FD" d="M186.388,55.587v15.007h-13.552V55.587H186.388z"/>
<linearGradient id="SVGID_3_" gradientUnits="userSpaceOnUse" x1="-340.6719" y1="-104.7441" x2="-340.6719" y2="-175.2544" gradientTransform="matrix(1 0 0 -1 579.04 -104.6602)">
	<stop  offset="0" style="stop-color:#FFFFFF"/>
	<stop  offset="1" style="stop-color:#F9F9F9"/>
</linearGradient>
<path fill="url(#SVGID_3_)" d="M200.774,70.594V0.084h16.459v55.182l15.811-29.525h10.65l15.813,29.525V0.084h16.457v70.51H250.31
	l-11.94-18.395L226.43,70.594H200.774z"/>
<path fill="#DCF2FB" d="M303.52,55.587v15.007h-13.555V55.587H303.52z"/>
<linearGradient id="SVGID_4_" gradientUnits="userSpaceOnUse" x1="-237.7236" y1="-104.7441" x2="-237.7236" y2="-175.2544" gradientTransform="matrix(1 0 0 -1 579.04 -104.6602)">
	<stop  offset="0" style="stop-color:#FFFFFF"/>
	<stop  offset="1" style="stop-color:#F9F9F9"/>
</linearGradient>
<path fill="url(#SVGID_4_)" d="M365.922,14.927h-16.295v55.667h-16.619V14.927h-16.297V0.084h49.211V14.927z"/>
<linearGradient id="SVGID_5_" gradientUnits="userSpaceOnUse" x1="-214.5532" y1="-167.7505" x2="-201.0005" y2="-167.7505" gradientTransform="matrix(1 0 0 -1 579.04 -104.6602)">
	<stop  offset="0" style="stop-color:#FFFFFF"/>
	<stop  offset="1" style="stop-color:#ECECED"/>
</linearGradient>
<path fill="url(#SVGID_5_)" d="M378.04,55.587v15.007h-13.553V55.587H378.04z"/>
<g>
	
		<linearGradient id="SVGID_6_" gradientUnits="userSpaceOnUse" x1="-579.4512" y1="-188.7832" x2="-570.667" y2="-188.7832" gradientTransform="matrix(1 0 0 -1 579.04 -104.6602)">
		<stop  offset="0" style="stop-color:#FFFFFF"/>
		<stop  offset="1" style="stop-color:#F9F9F9"/>
	</linearGradient>
	<path fill="url(#SVGID_6_)" d="M0.063,89.107c0.84,0.517,2.067,0.947,3.358,0.947c1.916,0,3.036-1.013,3.036-2.477
		c0-1.355-0.775-2.133-2.734-2.887c-2.368-0.838-3.832-2.065-3.832-4.111c0-2.26,1.873-3.939,4.693-3.939
		c1.485,0,2.562,0.346,3.208,0.711L7.275,78.88c-0.474-0.259-1.442-0.688-2.756-0.688c-1.981,0-2.734,1.185-2.734,2.175
		c0,1.356,0.883,2.022,2.885,2.799c2.454,0.946,3.703,2.132,3.703,4.263c0,2.239-1.658,4.178-5.081,4.178
		c-1.399,0-2.928-0.408-3.703-0.926L0.063,89.107z"/>
	
		<linearGradient id="SVGID_7_" gradientUnits="userSpaceOnUse" x1="-567.7769" y1="-188.7944" x2="-565.9043" y2="-188.7944" gradientTransform="matrix(1 0 0 -1 579.04 -104.6602)">
		<stop  offset="0" style="stop-color:#FFFFFF"/>
		<stop  offset="1" style="stop-color:#F9F9F9"/>
	</linearGradient>
	<path fill="url(#SVGID_7_)" d="M13.136,76.878v14.513h-1.873V76.878H13.136z"/>
	
		<linearGradient id="SVGID_8_" gradientUnits="userSpaceOnUse" x1="-563.0391" y1="-188.7832" x2="-554.2549" y2="-188.7832" gradientTransform="matrix(1 0 0 -1 579.04 -104.6602)">
		<stop  offset="0" style="stop-color:#FFFFFF"/>
		<stop  offset="1" style="stop-color:#F9F9F9"/>
	</linearGradient>
	<path fill="url(#SVGID_8_)" d="M16.475,89.107c0.84,0.517,2.066,0.947,3.358,0.947c1.916,0,3.036-1.013,3.036-2.477
		c0-1.355-0.775-2.133-2.734-2.887c-2.368-0.838-3.832-2.065-3.832-4.111c0-2.26,1.873-3.939,4.693-3.939
		c1.485,0,2.562,0.346,3.208,0.711l-0.517,1.528c-0.474-0.259-1.442-0.688-2.756-0.688c-1.981,0-2.734,1.185-2.734,2.175
		c0,1.356,0.883,2.022,2.885,2.799c2.454,0.946,3.703,2.132,3.703,4.263c0,2.239-1.658,4.178-5.081,4.178
		c-1.399,0-2.928-0.408-3.703-0.926L16.475,89.107z"/>
	
		<linearGradient id="SVGID_9_" gradientUnits="userSpaceOnUse" x1="-553.0239" y1="-188.7944" x2="-542.2813" y2="-188.7944" gradientTransform="matrix(1 0 0 -1 579.04 -104.6602)">
		<stop  offset="0" style="stop-color:#FFFFFF"/>
		<stop  offset="1" style="stop-color:#F9F9F9"/>
	</linearGradient>
	<path fill="url(#SVGID_9_)" d="M30.43,78.473h-4.414v-1.595h10.743v1.595h-4.435v12.918H30.43V78.473z"/>
	
		<linearGradient id="SVGID_10_" gradientUnits="userSpaceOnUse" x1="-540.3389" y1="-188.7935" x2="-532.1802" y2="-188.7935" gradientTransform="matrix(1 0 0 -1 579.04 -104.6602)">
		<stop  offset="0" style="stop-color:#FFFFFF"/>
		<stop  offset="1" style="stop-color:#F9F9F9"/>
	</linearGradient>
	<path fill="url(#SVGID_10_)" d="M46.215,84.586h-5.641v5.232h6.286v1.57h-8.159V76.878h7.837v1.572h-5.964v4.586h5.641V84.586z"/>
	
		<linearGradient id="SVGID_11_" gradientUnits="userSpaceOnUse" x1="-529.8071" y1="-188.7944" x2="-514.9941" y2="-188.7944" gradientTransform="matrix(1 0 0 -1 579.04 -104.6602)">
		<stop  offset="0" style="stop-color:#FFFFFF"/>
		<stop  offset="1" style="stop-color:#F9F9F9"/>
	</linearGradient>
	<path fill="url(#SVGID_11_)" d="M61.849,85.018c-0.107-2.023-0.236-4.457-0.215-6.267H61.57c-0.495,1.701-1.099,3.51-1.83,5.513
		l-2.563,7.041h-1.421l-2.347-6.912c-0.689-2.045-1.271-3.918-1.68-5.642h-0.043c-0.043,1.81-0.15,4.242-0.28,6.416l-0.386,6.224
		h-1.787l1.012-14.513h2.39l2.477,7.021c0.603,1.787,1.098,3.379,1.464,4.887h0.064c0.366-1.465,0.883-3.057,1.528-4.887
		l2.584-7.021h2.39l0.904,14.513h-1.83L61.849,85.018z"/>
	
		<linearGradient id="SVGID_12_" gradientUnits="userSpaceOnUse" x1="-513.0962" y1="-188.793" x2="-500.9521" y2="-188.793" gradientTransform="matrix(1 0 0 -1 579.04 -104.6602)">
		<stop  offset="0" style="stop-color:#FFFFFF"/>
		<stop  offset="1" style="stop-color:#F9F9F9"/>
	</linearGradient>
	<path fill="url(#SVGID_12_)" d="M69.39,86.825l-1.508,4.563h-1.938l4.931-14.512h2.261l4.952,14.512h-2.003l-1.55-4.563H69.39z
		 M74.147,85.361l-1.421-4.178c-0.323-0.947-0.538-1.809-0.754-2.647H71.93c-0.215,0.86-0.452,1.743-0.731,2.627l-1.421,4.198
		H74.147z"/>
	
		<linearGradient id="SVGID_13_" gradientUnits="userSpaceOnUse" x1="-494.7041" y1="-188.7939" x2="-482.5601" y2="-188.7939" gradientTransform="matrix(1 0 0 -1 579.04 -104.6602)">
		<stop  offset="0" style="stop-color:#FFFFFF"/>
		<stop  offset="1" style="stop-color:#F9F9F9"/>
	</linearGradient>
	<path fill="url(#SVGID_13_)" d="M87.782,86.825l-1.508,4.563h-1.938l4.931-14.512h2.261l4.952,14.514h-2.003l-1.55-4.564
		L87.782,86.825L87.782,86.825z M92.54,85.361l-1.421-4.178c-0.323-0.947-0.538-1.809-0.754-2.647h-0.043
		c-0.215,0.86-0.452,1.743-0.731,2.627l-1.421,4.198H92.54z"/>
	
		<linearGradient id="SVGID_14_" gradientUnits="userSpaceOnUse" x1="-480.1011" y1="-188.8047" x2="-468.1963" y2="-188.8047" gradientTransform="matrix(1 0 0 -1 579.04 -104.6602)">
		<stop  offset="0" style="stop-color:#FFFFFF"/>
		<stop  offset="1" style="stop-color:#F9F9F9"/>
	</linearGradient>
	<path fill="url(#SVGID_14_)" d="M98.939,77.072c1.141-0.174,2.497-0.303,3.982-0.303c2.691,0,4.607,0.625,5.878,1.81
		c1.292,1.185,2.045,2.862,2.045,5.21c0,2.369-0.731,4.307-2.088,5.643c-1.356,1.355-3.596,2.088-6.416,2.088
		c-1.335,0-2.454-0.064-3.401-0.172V77.072z M100.813,89.904c0.474,0.086,1.162,0.106,1.895,0.106c4.004,0,6.179-2.239,6.179-6.157
		c0.021-3.424-1.916-5.599-5.878-5.599c-0.969,0-1.7,0.087-2.195,0.194L100.813,89.904L100.813,89.904z"/>
	
		<linearGradient id="SVGID_15_" gradientUnits="userSpaceOnUse" x1="-465.8232" y1="-188.7944" x2="-451.0098" y2="-188.7944" gradientTransform="matrix(1 0 0 -1 579.04 -104.6602)">
		<stop  offset="0" style="stop-color:#FFFFFF"/>
		<stop  offset="1" style="stop-color:#F9F9F9"/>
	</linearGradient>
	<path fill="url(#SVGID_15_)" d="M125.834,85.018c-0.107-2.023-0.236-4.457-0.215-6.267h-0.064c-0.496,1.701-1.099,3.51-1.83,5.513
		l-2.563,7.041h-1.421l-2.347-6.912c-0.689-2.045-1.271-3.918-1.68-5.642h-0.043c-0.043,1.81-0.15,4.242-0.28,6.416l-0.387,6.224
		h-1.787l1.012-14.513h2.39l2.477,7.021c0.603,1.787,1.098,3.379,1.464,4.887h0.064c0.366-1.465,0.883-3.057,1.528-4.887
		l2.584-7.021h2.39l0.904,14.513h-1.83L125.834,85.018z"/>
	
		<linearGradient id="SVGID_16_" gradientUnits="userSpaceOnUse" x1="-447.7959" y1="-188.7944" x2="-445.9229" y2="-188.7944" gradientTransform="matrix(1 0 0 -1 579.04 -104.6602)">
		<stop  offset="0" style="stop-color:#FFFFFF"/>
		<stop  offset="1" style="stop-color:#F9F9F9"/>
	</linearGradient>
	<path fill="url(#SVGID_16_)" d="M133.117,76.878v14.513h-1.873V76.878H133.117z"/>
	
		<linearGradient id="SVGID_17_" gradientUnits="userSpaceOnUse" x1="-442.3252" y1="-188.7944" x2="-431.4321" y2="-188.7944" gradientTransform="matrix(1 0 0 -1 579.04 -104.6602)">
		<stop  offset="0" style="stop-color:#FFFFFF"/>
		<stop  offset="1" style="stop-color:#F9F9F9"/>
	</linearGradient>
	<path fill="url(#SVGID_17_)" d="M136.715,91.391V76.878h2.045l4.65,7.343c1.076,1.7,1.916,3.229,2.605,4.715l0.043-0.021
		c-0.172-1.938-0.216-3.703-0.216-5.964v-6.072h1.766v14.512h-1.895l-4.607-7.363c-1.012-1.615-1.98-3.272-2.713-4.846l-0.064,0.021
		c0.107,1.83,0.15,3.574,0.15,5.986v6.199h-1.764V91.391z"/>
	
		<linearGradient id="SVGID_18_" gradientUnits="userSpaceOnUse" x1="-427.8311" y1="-188.7944" x2="-425.958" y2="-188.7944" gradientTransform="matrix(1 0 0 -1 579.04 -104.6602)">
		<stop  offset="0" style="stop-color:#FFFFFF"/>
		<stop  offset="1" style="stop-color:#F9F9F9"/>
	</linearGradient>
	<path fill="url(#SVGID_18_)" d="M153.082,76.878v14.513h-1.873V76.878H153.082z"/>
	
		<linearGradient id="SVGID_19_" gradientUnits="userSpaceOnUse" x1="-423.0928" y1="-188.7832" x2="-414.3091" y2="-188.7832" gradientTransform="matrix(1 0 0 -1 579.04 -104.6602)">
		<stop  offset="0" style="stop-color:#FFFFFF"/>
		<stop  offset="1" style="stop-color:#F9F9F9"/>
	</linearGradient>
	<path fill="url(#SVGID_19_)" d="M156.421,89.107c0.84,0.517,2.067,0.947,3.358,0.947c1.916,0,3.036-1.013,3.036-2.477
		c0-1.355-0.775-2.133-2.734-2.887c-2.368-0.838-3.832-2.065-3.832-4.111c0-2.26,1.873-3.939,4.693-3.939
		c1.485,0,2.562,0.346,3.208,0.711l-0.517,1.528c-0.474-0.259-1.442-0.688-2.756-0.688c-1.981,0-2.734,1.185-2.734,2.175
		c0,1.356,0.883,2.022,2.885,2.799c2.454,0.946,3.703,2.132,3.703,4.263c0,2.239-1.658,4.178-5.081,4.178
		c-1.399,0-2.928-0.408-3.703-0.926L156.421,89.107z"/>
	
		<linearGradient id="SVGID_20_" gradientUnits="userSpaceOnUse" x1="-413.0781" y1="-188.7944" x2="-402.335" y2="-188.7944" gradientTransform="matrix(1 0 0 -1 579.04 -104.6602)">
		<stop  offset="0" style="stop-color:#FFFFFF"/>
		<stop  offset="1" style="stop-color:#F9F9F9"/>
	</linearGradient>
	<path fill="url(#SVGID_20_)" d="M170.376,78.473h-4.414v-1.595h10.743v1.595h-4.435v12.918h-1.895L170.376,78.473L170.376,78.473z"
		/>
	
		<linearGradient id="SVGID_21_" gradientUnits="userSpaceOnUse" x1="-400.394" y1="-188.7393" x2="-390.9419" y2="-188.7393" gradientTransform="matrix(1 0 0 -1 579.04 -104.6602)">
		<stop  offset="0" style="stop-color:#FFFFFF"/>
		<stop  offset="1" style="stop-color:#F9F9F9"/>
	</linearGradient>
	<path fill="url(#SVGID_21_)" d="M178.646,77.072c0.947-0.194,2.304-0.303,3.595-0.303c2.003,0,3.295,0.366,4.199,1.186
		c0.731,0.646,1.141,1.636,1.141,2.756c0,1.916-1.206,3.188-2.734,3.703v0.064c1.12,0.388,1.787,1.42,2.132,2.928
		c0.474,2.023,0.817,3.424,1.119,3.982h-1.938c-0.237-0.408-0.56-1.658-0.969-3.467c-0.431-2.002-1.206-2.756-2.907-2.82h-1.765
		v6.287h-1.873V77.072z M180.52,83.682h1.916c2.002,0,3.272-1.098,3.272-2.756c0-1.873-1.356-2.691-3.337-2.713
		c-0.904,0-1.551,0.086-1.852,0.173L180.52,83.682L180.52,83.682z"/>
	
		<linearGradient id="SVGID_22_" gradientUnits="userSpaceOnUse" x1="-389.4761" y1="-188.793" x2="-377.3306" y2="-188.793" gradientTransform="matrix(1 0 0 -1 579.04 -104.6602)">
		<stop  offset="0" style="stop-color:#FFFFFF"/>
		<stop  offset="1" style="stop-color:#F9F9F9"/>
	</linearGradient>
	<path fill="url(#SVGID_22_)" d="M193.01,86.825l-1.508,4.563h-1.938l4.933-14.512h2.26l4.953,14.512h-2.004l-1.549-4.563H193.01z
		 M197.768,85.361l-1.42-4.178c-0.324-0.947-0.539-1.809-0.754-2.647h-0.043c-0.215,0.86-0.453,1.743-0.732,2.627l-1.42,4.198
		H197.768z"/>
	
		<linearGradient id="SVGID_23_" gradientUnits="userSpaceOnUse" x1="-378.188" y1="-188.7944" x2="-367.4458" y2="-188.7944" gradientTransform="matrix(1 0 0 -1 579.04 -104.6602)">
		<stop  offset="0" style="stop-color:#FFFFFF"/>
		<stop  offset="1" style="stop-color:#F9F9F9"/>
	</linearGradient>
	<path fill="url(#SVGID_23_)" d="M205.266,78.473h-4.414v-1.595h10.742v1.595h-4.434v12.918h-1.896L205.266,78.473L205.266,78.473z"
		/>
	
		<linearGradient id="SVGID_24_" gradientUnits="userSpaceOnUse" x1="-365.5044" y1="-188.7944" x2="-363.6313" y2="-188.7944" gradientTransform="matrix(1 0 0 -1 579.04 -104.6602)">
		<stop  offset="0" style="stop-color:#FFFFFF"/>
		<stop  offset="1" style="stop-color:#F9F9F9"/>
	</linearGradient>
	<path fill="url(#SVGID_24_)" d="M215.409,76.878v14.513h-1.873V76.878H215.409z"/>
	
		<linearGradient id="SVGID_25_" gradientUnits="userSpaceOnUse" x1="-361.5845" y1="-188.7944" x2="-349.5923" y2="-188.7944" gradientTransform="matrix(1 0 0 -1 579.04 -104.6602)">
		<stop  offset="0" style="stop-color:#FFFFFF"/>
		<stop  offset="1" style="stop-color:#F9F9F9"/>
	</linearGradient>
	<path fill="url(#SVGID_25_)" d="M222.194,91.391l-4.738-14.513h2.025l2.26,7.147c0.625,1.959,1.162,3.726,1.551,5.427h0.043
		c0.408-1.681,1.013-3.511,1.658-5.404l2.453-7.17h2.002l-5.188,14.513H222.194z"/>
	
		<linearGradient id="SVGID_26_" gradientUnits="userSpaceOnUse" x1="-348.5522" y1="-188.7949" x2="-335.2915" y2="-188.7949" gradientTransform="matrix(1 0 0 -1 579.04 -104.6602)">
		<stop  offset="0" style="stop-color:#FFFFFF"/>
		<stop  offset="1" style="stop-color:#F9F9F9"/>
	</linearGradient>
	<path fill="url(#SVGID_26_)" d="M243.749,83.982c0,4.996-3.035,7.645-6.738,7.645c-3.832,0-6.522-2.973-6.522-7.363
		c0-4.607,2.863-7.621,6.738-7.621C241.186,76.643,243.749,79.678,243.749,83.982z M232.489,84.221c0,3.1,1.68,5.877,4.629,5.877
		c2.971,0,4.65-2.733,4.65-6.027c0-2.885-1.508-5.899-4.629-5.899C234.038,78.17,232.489,81.033,232.489,84.221z"/>
	
		<linearGradient id="SVGID_27_" gradientUnits="userSpaceOnUse" x1="-329.731" y1="-188.7944" x2="-312.0112" y2="-188.7944" gradientTransform="matrix(1 0 0 -1 579.04 -104.6602)">
		<stop  offset="0" style="stop-color:#FFFFFF"/>
		<stop  offset="1" style="stop-color:#F9F9F9"/>
	</linearGradient>
	<path fill="url(#SVGID_27_)" d="M252.991,91.391l-3.682-14.513h1.98l1.723,7.343c0.432,1.809,0.818,3.616,1.076,5.016h0.043
		c0.238-1.441,0.688-3.164,1.186-5.037l1.938-7.32h1.959l1.767,7.363c0.408,1.723,0.797,3.445,1.013,4.974h0.043
		c0.301-1.593,0.711-3.208,1.162-5.017l1.915-7.32h1.916l-4.11,14.512h-1.959l-1.83-7.557c-0.453-1.852-0.754-3.273-0.947-4.736
		h-0.043c-0.26,1.441-0.582,2.862-1.121,4.736l-2.066,7.557H252.991L252.991,91.391z"/>
	
		<linearGradient id="SVGID_28_" gradientUnits="userSpaceOnUse" x1="-309.8735" y1="-188.7935" x2="-301.7153" y2="-188.7935" gradientTransform="matrix(1 0 0 -1 579.04 -104.6602)">
		<stop  offset="0" style="stop-color:#FFFFFF"/>
		<stop  offset="1" style="stop-color:#F9F9F9"/>
	</linearGradient>
	<path fill="url(#SVGID_28_)" d="M276.68,84.586h-5.641v5.232h6.285v1.57h-8.158V76.878h7.836v1.572h-5.963v4.586h5.641V84.586z"/>
	
		<linearGradient id="SVGID_29_" gradientUnits="userSpaceOnUse" x1="-298.9556" y1="-188.8047" x2="-289.8062" y2="-188.8047" gradientTransform="matrix(1 0 0 -1 579.04 -104.6602)">
		<stop  offset="0" style="stop-color:#FFFFFF"/>
		<stop  offset="1" style="stop-color:#F9F9F9"/>
	</linearGradient>
	<path fill="url(#SVGID_29_)" d="M280.086,77.072c0.815-0.174,2.108-0.303,3.422-0.303c1.873,0,3.08,0.323,3.984,1.056
		c0.752,0.561,1.205,1.422,1.205,2.563c0,1.398-0.927,2.627-2.455,3.187v0.043c1.379,0.345,2.991,1.485,2.991,3.639
		c0,1.249-0.493,2.196-1.228,2.906c-1.012,0.926-2.647,1.356-5.016,1.356c-1.293,0-2.283-0.086-2.906-0.172V77.072H280.086z
		 M281.959,83.016h1.699c1.981,0,3.145-1.033,3.145-2.435c0-1.7-1.293-2.368-3.188-2.368c-0.861,0-1.355,0.064-1.656,0.13V83.016z
		 M281.959,89.969c0.365,0.064,0.904,0.086,1.57,0.086c1.938,0,3.725-0.709,3.725-2.82c0-1.979-1.701-2.799-3.746-2.799h-1.549
		V89.969z"/>
	
		<linearGradient id="SVGID_30_" gradientUnits="userSpaceOnUse" x1="-284.6118" y1="-188.7944" x2="-273.8677" y2="-188.7944" gradientTransform="matrix(1 0 0 -1 579.04 -104.6602)">
		<stop  offset="0" style="stop-color:#FFFFFF"/>
		<stop  offset="1" style="stop-color:#F9F9F9"/>
	</linearGradient>
	<path fill="url(#SVGID_30_)" d="M298.842,78.473h-4.414v-1.595h10.744v1.595h-4.437v12.918h-1.896V78.473H298.842z"/>
	
		<linearGradient id="SVGID_31_" gradientUnits="userSpaceOnUse" x1="-271.9263" y1="-188.7944" x2="-261.1382" y2="-188.7944" gradientTransform="matrix(1 0 0 -1 579.04 -104.6602)">
		<stop  offset="0" style="stop-color:#FFFFFF"/>
		<stop  offset="1" style="stop-color:#F9F9F9"/>
	</linearGradient>
	<path fill="url(#SVGID_31_)" d="M308.987,76.878v6.072h7.02v-6.072h1.896v14.513h-1.896v-6.805h-7.02v6.805h-1.873V76.878H308.987z
		"/>
	
		<linearGradient id="SVGID_32_" gradientUnits="userSpaceOnUse" x1="-258.4224" y1="-188.7949" x2="-245.1587" y2="-188.7949" gradientTransform="matrix(1 0 0 -1 579.04 -104.6602)">
		<stop  offset="0" style="stop-color:#FFFFFF"/>
		<stop  offset="1" style="stop-color:#F9F9F9"/>
	</linearGradient>
	<path fill="url(#SVGID_32_)" d="M333.881,83.982c0,4.996-3.037,7.645-6.74,7.645c-3.832,0-6.523-2.973-6.523-7.363
		c0-4.607,2.863-7.621,6.738-7.621C331.319,76.643,333.881,79.678,333.881,83.982z M322.62,84.221c0,3.1,1.68,5.877,4.629,5.877
		c2.974,0,4.65-2.733,4.65-6.027c0-2.885-1.506-5.899-4.629-5.899C324.17,78.17,322.62,81.033,322.62,84.221z"/>
	
		<linearGradient id="SVGID_33_" gradientUnits="userSpaceOnUse" x1="-242.7856" y1="-188.7944" x2="-227.9731" y2="-188.7944" gradientTransform="matrix(1 0 0 -1 579.04 -104.6602)">
		<stop  offset="0" style="stop-color:#FFFFFF"/>
		<stop  offset="1" style="stop-color:#F9F9F9"/>
	</linearGradient>
	<path fill="url(#SVGID_33_)" d="M348.87,85.018c-0.106-2.023-0.236-4.457-0.215-6.267h-0.064c-0.493,1.701-1.098,3.51-1.83,5.513
		l-2.563,7.041h-1.42l-2.348-6.912c-0.689-2.045-1.27-3.918-1.68-5.642h-0.043c-0.043,1.81-0.15,4.242-0.279,6.416l-0.387,6.224
		h-1.787l1.012-14.513h2.389l2.477,7.021c0.605,1.787,1.099,3.379,1.466,4.887h0.063c0.365-1.465,0.883-3.057,1.527-4.887
		l2.584-7.021h2.391l0.904,14.513h-1.83L348.87,85.018z"/>
	
		<linearGradient id="SVGID_34_" gradientUnits="userSpaceOnUse" x1="-226.0747" y1="-188.793" x2="-213.9302" y2="-188.793" gradientTransform="matrix(1 0 0 -1 579.04 -104.6602)">
		<stop  offset="0" style="stop-color:#FFFFFF"/>
		<stop  offset="1" style="stop-color:#F9F9F9"/>
	</linearGradient>
	<path fill="url(#SVGID_34_)" d="M356.411,86.825l-1.508,4.563h-1.938l4.932-14.512h2.26l4.953,14.512h-2.004l-1.549-4.563H356.411z
		 M361.168,85.361l-1.42-4.178c-0.324-0.947-0.539-1.809-0.754-2.647h-0.043c-0.216,0.86-0.453,1.743-0.732,2.627l-1.42,4.198
		H361.168z"/>
	
		<linearGradient id="SVGID_35_" gradientUnits="userSpaceOnUse" x1="-212.4634" y1="-188.7935" x2="-201.8696" y2="-188.7935" gradientTransform="matrix(1 0 0 -1 579.04 -104.6602)">
		<stop  offset="0" style="stop-color:#FFFFFF"/>
		<stop  offset="1" style="stop-color:#F9F9F9"/>
	</linearGradient>
	<path fill="url(#SVGID_35_)" d="M366.577,90.292l8.053-11.776V78.45h-7.362v-1.572h9.797v1.142l-8.011,11.733v0.065h8.117v1.57
		h-10.594V90.292z"/>
</g>
</svg>
