<?xml version="1.0" encoding="utf-8"?>
<!-- Generator: Adobe Illustrator 16.0.0, SVG Export Plug-In . SVG Version: 6.00 Build 0)  -->
<!DOCTYPE svg PUBLIC "-//W3C//DTD SVG 1.1//EN" "http://www.w3.org/Graphics/SVG/1.1/DTD/svg11.dtd">
<svg version="1.1" id="Layer_1" xmlns="http://www.w3.org/2000/svg" xmlns:xlink="http://www.w3.org/1999/xlink" x="0px" y="0px"
	 width="378.04px" height="91.627px" viewBox="0 0 378.04 91.627" enable-background="new 0 0 378.04 91.627" xml:space="preserve">
<linearGradient id="SVGID_1_" gradientUnits="userSpaceOnUse" x1="24.8472" y1="0.1606" x2="24.8472" y2="70.9917">
	<stop  offset="0" style="stop-color:#525252"/>
	<stop  offset="1" style="stop-color:#333333"/>
</linearGradient>
<path fill="url(#SVGID_1_)" d="M41.466,70.991H0V55.985h33.075V42.756H8.388c-2.257,0-4.223-0.725-5.887-2.18
	C0.83,39.127,0,37.325,0,35.171V7.581C0,5.539,0.83,3.79,2.501,2.338c1.664-1.453,3.63-2.178,5.887-2.178h41.307v15.005H16.78
	v12.424h24.686c2.258,0,4.193,0.727,5.809,2.179c1.615,1.45,2.42,3.253,2.42,5.403v28.238c0,2.15-0.805,3.951-2.42,5.402
	C45.659,70.267,43.724,70.991,41.466,70.991z"/>
<path fill="#048FBF" d="M75.96,55.824v15.007H62.407V55.824H75.96z"/>
<linearGradient id="SVGID_2_" gradientUnits="userSpaceOnUse" x1="125.6074" y1="0.4805" x2="125.6074" y2="70.8315">
	<stop  offset="0" style="stop-color:#525252"/>
	<stop  offset="1" style="stop-color:#333333"/>
</linearGradient>
<path fill="url(#SVGID_2_)" d="M144.244,70.831l-5.486-16.617h-26.139l-5.648,16.617H89.868L112.94,0.48h25.335l23.071,70.351
	H144.244z M125.687,15.327l-8.066,23.718h15.975L125.687,15.327z"/>
<path fill="#03A7E0" d="M186.389,55.824v15.007h-13.552V55.824H186.389z"/>
<linearGradient id="SVGID_3_" gradientUnits="userSpaceOnUse" x1="238.3701" y1="0.3213" x2="238.3701" y2="70.8315">
	<stop  offset="0" style="stop-color:#525252"/>
	<stop  offset="1" style="stop-color:#333333"/>
</linearGradient>
<path fill="url(#SVGID_3_)" d="M200.775,70.831V0.321h16.458v55.182l15.811-29.526h10.651l15.813,29.526V0.321h16.457v70.51h-25.654
	l-11.939-18.395l-11.94,18.395H200.775z"/>
<path fill="#82CFEF" d="M303.521,55.824v15.007h-13.554V55.824H303.521z"/>
<linearGradient id="SVGID_4_" gradientUnits="userSpaceOnUse" x1="341.3174" y1="0.3213" x2="341.3174" y2="70.8315">
	<stop  offset="0" style="stop-color:#525252"/>
	<stop  offset="1" style="stop-color:#333333"/>
</linearGradient>
<path fill="url(#SVGID_4_)" d="M365.924,15.164h-16.295v55.667h-16.62V15.164h-16.297V0.321h49.212V15.164z"/>
<path fill="#868789" d="M378.04,55.824v15.007h-13.553V55.824H378.04z"/>
<g>
	<path fill="#333333" d="M0.064,89.345c0.84,0.517,2.067,0.947,3.358,0.947c1.916,0,3.036-1.012,3.036-2.476
		c0-1.356-0.775-2.132-2.734-2.886c-2.368-0.839-3.832-2.066-3.832-4.112c0-2.26,1.873-3.939,4.693-3.939
		c1.485,0,2.562,0.345,3.208,0.71l-0.517,1.529c-0.474-0.259-1.442-0.689-2.756-0.689c-1.981,0-2.734,1.185-2.734,2.175
		c0,1.356,0.883,2.023,2.885,2.799c2.454,0.947,3.703,2.132,3.703,4.263c0,2.239-1.658,4.177-5.081,4.177
		c-1.399,0-2.928-0.408-3.703-0.926L0.064,89.345z"/>
	<path fill="#333333" d="M13.137,77.115v14.512h-1.873V77.115H13.137z"/>
	<path fill="#333333" d="M16.476,89.345c0.84,0.517,2.066,0.947,3.358,0.947c1.916,0,3.036-1.012,3.036-2.476
		c0-1.356-0.775-2.132-2.734-2.886c-2.368-0.839-3.832-2.066-3.832-4.112c0-2.26,1.873-3.939,4.693-3.939
		c1.485,0,2.562,0.345,3.208,0.71l-0.517,1.529c-0.474-0.259-1.442-0.689-2.756-0.689c-1.981,0-2.734,1.185-2.734,2.175
		c0,1.356,0.883,2.023,2.885,2.799c2.454,0.947,3.703,2.132,3.703,4.263c0,2.239-1.658,4.177-5.081,4.177
		c-1.399,0-2.928-0.408-3.703-0.926L16.476,89.345z"/>
	<path fill="#333333" d="M30.431,78.709h-4.414v-1.594H36.76v1.594h-4.435v12.918h-1.895V78.709z"/>
	<path fill="#333333" d="M46.216,84.823h-5.641v5.232h6.286v1.571h-8.159V77.115h7.837v1.572h-5.964v4.586h5.641V84.823z"/>
	<path fill="#333333" d="M61.85,85.254c-0.107-2.023-0.236-4.457-0.215-6.266H61.57c-0.495,1.701-1.099,3.51-1.83,5.512
		l-2.563,7.041h-1.421L53.41,84.63c-0.689-2.046-1.271-3.919-1.68-5.642h-0.043c-0.043,1.809-0.15,4.242-0.28,6.416l-0.387,6.223
		h-1.787l1.012-14.512h2.39l2.477,7.02c0.603,1.787,1.098,3.38,1.464,4.887h0.064c0.366-1.464,0.883-3.057,1.528-4.887l2.584-7.02
		h2.39l0.904,14.512h-1.83L61.85,85.254z"/>
	<path fill="#333333" d="M69.391,87.063l-1.508,4.564h-1.938l4.931-14.512h2.261l4.952,14.512h-2.003l-1.55-4.564H69.391z
		 M74.148,85.599l-1.421-4.177c-0.323-0.947-0.538-1.809-0.754-2.648h-0.043c-0.215,0.861-0.452,1.744-0.731,2.627l-1.421,4.198
		H74.148z"/>
	<path fill="#333333" d="M87.783,87.063l-1.508,4.564h-1.938l4.931-14.512h2.261l4.952,14.512h-2.003l-1.55-4.564H87.783z
		 M92.541,85.599l-1.421-4.177c-0.323-0.947-0.538-1.809-0.754-2.648h-0.043c-0.215,0.861-0.452,1.744-0.731,2.627l-1.421,4.198
		H92.541z"/>
	<path fill="#333333" d="M98.94,77.31c1.141-0.173,2.497-0.302,3.982-0.302c2.691,0,4.607,0.625,5.878,1.809
		c1.292,1.185,2.045,2.863,2.045,5.21c0,2.369-0.731,4.307-2.088,5.642c-1.356,1.356-3.596,2.088-6.416,2.088
		c-1.335,0-2.454-0.064-3.401-0.172V77.31z M100.813,90.142c0.474,0.086,1.162,0.107,1.895,0.107c4.004,0,6.179-2.239,6.179-6.157
		c0.021-3.424-1.916-5.599-5.878-5.599c-0.969,0-1.7,0.087-2.195,0.194V90.142z"/>
	<path fill="#333333" d="M125.835,85.254c-0.107-2.023-0.236-4.457-0.215-6.266h-0.064c-0.496,1.701-1.099,3.51-1.83,5.512
		l-2.563,7.041h-1.421l-2.347-6.911c-0.689-2.046-1.271-3.919-1.68-5.642h-0.043c-0.043,1.809-0.15,4.242-0.28,6.416l-0.387,6.223
		h-1.787l1.012-14.512h2.39l2.477,7.02c0.603,1.787,1.098,3.38,1.464,4.887h0.064c0.366-1.464,0.883-3.057,1.528-4.887l2.584-7.02
		h2.39l0.904,14.512h-1.83L125.835,85.254z"/>
	<path fill="#333333" d="M133.118,77.115v14.512h-1.873V77.115H133.118z"/>
	<path fill="#333333" d="M136.716,91.627V77.115h2.045l4.65,7.342c1.076,1.701,1.916,3.229,2.605,4.716l0.043-0.021
		c-0.172-1.938-0.216-3.703-0.216-5.964v-6.072h1.766v14.512h-1.895l-4.607-7.363c-1.012-1.615-1.98-3.272-2.713-4.845l-0.064,0.021
		c0.107,1.83,0.15,3.574,0.15,5.986v6.2H136.716z"/>
	<path fill="#333333" d="M153.083,77.115v14.512h-1.873V77.115H153.083z"/>
	<path fill="#333333" d="M156.422,89.345c0.84,0.517,2.067,0.947,3.358,0.947c1.916,0,3.036-1.012,3.036-2.476
		c0-1.356-0.775-2.132-2.734-2.886c-2.368-0.839-3.832-2.066-3.832-4.112c0-2.26,1.873-3.939,4.693-3.939
		c1.485,0,2.562,0.345,3.208,0.71l-0.517,1.529c-0.474-0.259-1.442-0.689-2.756-0.689c-1.981,0-2.734,1.185-2.734,2.175
		c0,1.356,0.883,2.023,2.885,2.799c2.454,0.947,3.703,2.132,3.703,4.263c0,2.239-1.658,4.177-5.081,4.177
		c-1.399,0-2.928-0.408-3.703-0.926L156.422,89.345z"/>
	<path fill="#333333" d="M170.377,78.709h-4.414v-1.594h10.743v1.594h-4.435v12.918h-1.895V78.709z"/>
	<path fill="#333333" d="M178.647,77.31c0.947-0.194,2.304-0.302,3.595-0.302c2.003,0,3.295,0.366,4.199,1.185
		c0.731,0.646,1.141,1.636,1.141,2.756c0,1.916-1.206,3.187-2.734,3.703v0.064c1.12,0.388,1.787,1.421,2.132,2.928
		c0.474,2.024,0.817,3.424,1.119,3.983h-1.938c-0.237-0.409-0.56-1.658-0.969-3.467c-0.431-2.002-1.206-2.756-2.907-2.82h-1.765
		v6.287h-1.873V77.31z M180.521,83.919h1.916c2.002,0,3.272-1.098,3.272-2.756c0-1.873-1.356-2.691-3.337-2.713
		c-0.904,0-1.551,0.086-1.852,0.173V83.919z"/>
	<path fill="#333333" d="M193.012,87.063l-1.508,4.564h-1.938l4.931-14.512h2.261l4.952,14.512h-2.003l-1.55-4.564H193.012z
		 M197.77,85.599l-1.421-4.177c-0.323-0.947-0.538-1.809-0.754-2.648h-0.043c-0.215,0.861-0.452,1.744-0.731,2.627l-1.421,4.198
		H197.77z"/>
	<path fill="#333333" d="M205.267,78.709h-4.414v-1.594h10.743v1.594h-4.435v12.918h-1.895V78.709z"/>
	<path fill="#333333" d="M215.41,77.115v14.512h-1.873V77.115H215.41z"/>
	<path fill="#333333" d="M222.194,91.627l-4.737-14.512h2.024l2.261,7.148c0.624,1.959,1.162,3.725,1.55,5.426h0.043
		c0.409-1.68,1.012-3.51,1.658-5.404l2.454-7.17h2.002l-5.188,14.512H222.194z"/>
	<path fill="#333333" d="M243.75,84.221c0,4.995-3.036,7.644-6.739,7.644c-3.832,0-6.523-2.972-6.523-7.364
		c0-4.607,2.863-7.621,6.738-7.621C241.188,76.879,243.75,79.915,243.75,84.221z M232.489,84.457c0,3.101,1.68,5.878,4.629,5.878
		c2.972,0,4.65-2.734,4.65-6.028c0-2.885-1.507-5.899-4.629-5.899C234.039,78.407,232.489,81.271,232.489,84.457z"/>
	<path fill="#333333" d="M252.992,91.627l-3.682-14.512h1.98l1.723,7.342c0.431,1.809,0.818,3.617,1.076,5.017h0.043
		c0.237-1.442,0.689-3.165,1.185-5.038l1.938-7.32h1.959l1.766,7.363c0.409,1.723,0.797,3.445,1.012,4.974h0.043
		c0.302-1.593,0.711-3.208,1.163-5.017l1.916-7.32h1.916l-4.112,14.512h-1.959l-1.83-7.557c-0.452-1.852-0.754-3.273-0.947-4.737
		h-0.043c-0.259,1.442-0.581,2.863-1.12,4.737l-2.066,7.557H252.992z"/>
	<path fill="#333333" d="M276.681,84.823h-5.641v5.232h6.286v1.571h-8.159V77.115h7.837v1.572h-5.964v4.586h5.641V84.823z"/>
	<path fill="#333333" d="M280.087,77.31c0.817-0.173,2.109-0.302,3.423-0.302c1.873,0,3.079,0.323,3.983,1.055
		c0.753,0.561,1.205,1.422,1.205,2.563c0,1.399-0.926,2.627-2.454,3.187v0.043c1.378,0.345,2.992,1.485,2.992,3.639
		c0,1.249-0.495,2.196-1.227,2.906c-1.012,0.926-2.648,1.356-5.017,1.356c-1.292,0-2.282-0.086-2.906-0.172V77.31z M281.96,83.252
		h1.7c1.981,0,3.144-1.033,3.144-2.434c0-1.7-1.292-2.368-3.187-2.368c-0.861,0-1.356,0.064-1.657,0.13V83.252z M281.96,90.206
		c0.365,0.064,0.904,0.086,1.571,0.086c1.938,0,3.725-0.71,3.725-2.82c0-1.98-1.701-2.799-3.746-2.799h-1.55V90.206z"/>
	<path fill="#333333" d="M298.844,78.709h-4.414v-1.594h10.743v1.594h-4.435v12.918h-1.895V78.709z"/>
	<path fill="#333333" d="M308.988,77.115v6.072h7.019v-6.072h1.895v14.512h-1.895v-6.804h-7.019v6.804h-1.873V77.115H308.988z"/>
	<path fill="#333333" d="M333.882,84.221c0,4.995-3.036,7.644-6.739,7.644c-3.832,0-6.523-2.972-6.523-7.364
		c0-4.607,2.863-7.621,6.738-7.621C331.319,76.879,333.882,79.915,333.882,84.221z M322.621,84.457c0,3.101,1.68,5.878,4.629,5.878
		c2.972,0,4.65-2.734,4.65-6.028c0-2.885-1.507-5.899-4.629-5.899C324.171,78.407,322.621,81.271,322.621,84.457z"/>
	<path fill="#333333" d="M348.871,85.254c-0.107-2.023-0.236-4.457-0.215-6.266h-0.064c-0.495,1.701-1.099,3.51-1.83,5.512
		l-2.563,7.041h-1.421l-2.347-6.911c-0.689-2.046-1.271-3.919-1.68-5.642h-0.043c-0.043,1.809-0.15,4.242-0.28,6.416l-0.387,6.223
		h-1.787l1.012-14.512h2.39l2.477,7.02c0.603,1.787,1.098,3.38,1.464,4.887h0.064c0.366-1.464,0.883-3.057,1.528-4.887l2.584-7.02
		h2.39l0.904,14.512h-1.83L348.871,85.254z"/>
	<path fill="#333333" d="M356.412,87.063l-1.508,4.564h-1.938l4.931-14.512h2.261l4.952,14.512h-2.003l-1.55-4.564H356.412z
		 M361.17,85.599l-1.421-4.177c-0.323-0.947-0.538-1.809-0.754-2.648h-0.043c-0.215,0.861-0.452,1.744-0.731,2.627l-1.421,4.198
		H361.17z"/>
	<path fill="#333333" d="M366.578,90.529l8.053-11.777v-0.064h-7.363v-1.572h9.796v1.142l-8.009,11.733v0.065h8.116v1.571h-10.593
		V90.529z"/>
</g>
</svg>
